<?xml version="1.0" standalone="no"?><!DOCTYPE svg PUBLIC "-//W3C//DTD SVG 1.1//EN" "http://www.w3.org/Graphics/SVG/1.1/DTD/svg11.dtd"><svg t="1632068039900" class="icon" viewBox="0 0 1024 1024" version="1.1" xmlns="http://www.w3.org/2000/svg" p-id="7861" xmlns:xlink="http://www.w3.org/1999/xlink" width="200" height="200"><defs><style type="text/css">@font-face { font-family: element-icons; src: url("chrome-extension://moombeodfomdpjnpocobemoiaemednkg/fonts/element-icons.woff") format("woff"), url("chrome-extension://moombeodfomdpjnpocobemoiaemednkg/fonts/element-icons.ttf ") format("truetype"); }
</style></defs><path d="M512 785.066667c-2.1504 0-4.317867-0.4096-6.365867-1.2288l-426.666666-171.52a17.066667 17.066667 0 0 1 12.731733-31.675734L512 749.602133l420.3008-168.942933a17.066667 17.066667 0 1 1 12.731733 31.675733l-426.666666 171.52c-2.048 0.802133-4.215467 1.211733-6.365867 1.211734z m0-171.52a16.896 16.896 0 0 1-6.314667-1.211734l-426.666666-169.813333A17.066667 17.066667 0 0 1 68.266667 426.666667V256a17.083733 17.083733 0 0 1 23.3984-15.854933L512 408.285867l420.334933-168.1408A17.083733 17.083733 0 0 1 955.733333 256v170.666667a17.066667 17.066667 0 0 1-10.752 15.854933l-426.666666 169.813333a16.896 16.896 0 0 1-6.314667 1.211734zM102.4 415.095467l409.6 163.0208 409.6-163.0208v-133.888l-403.2512 161.314133a17.134933 17.134933 0 0 1-12.680533 0L102.4 281.207467v133.888z" p-id="7862" fill="#e6e6e6"></path></svg>