<?xml version="1.0" standalone="no"?><!DOCTYPE svg PUBLIC "-//W3C//DTD SVG 1.1//EN" "http://www.w3.org/Graphics/SVG/1.1/DTD/svg11.dtd"><svg t="1632186171199" class="icon" viewBox="0 0 1024 1024" version="1.1" xmlns="http://www.w3.org/2000/svg" p-id="7972" xmlns:xlink="http://www.w3.org/1999/xlink" width="200" height="200"><defs><style type="text/css">@font-face { font-family: element-icons; src: url("chrome-extension://moombeodfomdpjnpocobemoiaemednkg/fonts/element-icons.woff") format("woff"), url("chrome-extension://moombeodfomdpjnpocobemoiaemednkg/fonts/element-icons.ttf ") format("truetype"); }
</style></defs><path d="M947.5 390.6l-377-290c-34.5-26.5-82.6-26.5-117.1 0l-377 290c-14 10.8-16.6 30.9-5.9 44.9 10.8 14 30.9 16.6 44.9 5.9l28.5-21.9V768c0 88.2 71.8 160 160 160h80c35.3 0 64-28.7 64-64V640c0-17.6 14.4-32 32-32h64c17.6 0 32 14.4 32 32v224c0 35.3 28.7 64 64 64h80c88.2 0 160-71.8 160-160V419.4l28.5 21.9c5.8 4.5 12.7 6.6 19.5 6.6 9.6 0 19.1-4.3 25.4-12.5 10.8-13.9 8.2-34-5.8-44.8zM816 768c0 52.9-43.1 96-96 96h-80V640c0-52.9-43.1-96-96-96h-64c-52.9 0-96 43.1-96 96v224h-80c-52.9 0-96-43.1-96-96V370.2l284.5-218.8c11.5-8.8 27.5-8.8 39 0L816 370.2V768z" fill="#1875F0" p-id="7973"></path></svg>