<?xml version="1.0" standalone="no"?><!DOCTYPE svg PUBLIC "-//W3C//DTD SVG 1.1//EN" "http://www.w3.org/Graphics/SVG/1.1/DTD/svg11.dtd"><svg t="1632315004862" class="icon" viewBox="0 0 1024 1024" version="1.1" xmlns="http://www.w3.org/2000/svg" p-id="7152" xmlns:xlink="http://www.w3.org/1999/xlink" width="16" height="16"><defs><style type="text/css">@font-face { font-family: element-icons; src: url("chrome-extension://moombeodfomdpjnpocobemoiaemednkg/fonts/element-icons.woff") format("woff"), url("chrome-extension://moombeodfomdpjnpocobemoiaemednkg/fonts/element-icons.ttf ") format("truetype"); }
</style></defs><path d="M326.314667 981.333333c-65.109333-130.816-30.848-206.08 20.565333-274.730666 54.826667-78.506667 68.522667-153.728 68.522667-153.728s44.544 52.352 27.434666 137.386666c75.392-81.792 89.088-212.608 78.805334-261.674666 171.349333 114.474667 246.741333 366.336 147.370666 549.461333 527.701333-287.786667 130.218667-716.245333 61.653334-762.026667 24.021333 49.066667 27.434667 130.816-20.565334 170.069334C631.296 98.261333 435.968 42.666667 435.968 42.666667c23.978667 147.2-82.218667 307.456-185.045333 428.458666-3.413333-58.88-6.826667-98.133333-41.130667-157.013333-6.826667 107.946667-92.501333 192.981333-116.48 300.928-30.848 147.2 23.978667 251.818667 233.002667 366.293333z" fill="#FF4800" p-id="7153"></path></svg>