<?xml version="1.0" standalone="no"?><!DOCTYPE svg PUBLIC "-//W3C//DTD SVG 1.1//EN" "http://www.w3.org/Graphics/SVG/1.1/DTD/svg11.dtd"><svg t="1632112934826" class="icon" viewBox="0 0 1024 1024" version="1.1" xmlns="http://www.w3.org/2000/svg" p-id="3543" xmlns:xlink="http://www.w3.org/1999/xlink" width="200" height="200"><defs><style type="text/css">@font-face { font-family: element-icons; src: url("chrome-extension://moombeodfomdpjnpocobemoiaemednkg/fonts/element-icons.woff") format("woff"), url("chrome-extension://moombeodfomdpjnpocobemoiaemednkg/fonts/element-icons.ttf ") format("truetype"); }
</style></defs><path d="M858.9312 892.928H176.4352c-73.5232 0-133.12-59.5968-133.12-133.12V268.7488c0-73.5232 59.5968-133.12 133.12-133.12h682.496c73.5232 0 133.12 59.5968 133.12 133.12v491.0592c0 73.5232-59.5968 133.12-133.12 133.12z" fill="#8C7BFD" p-id="3544"></path><path d="M863.232 485.9392c-21.7088-27.5456-54.4768-45.1584-89.9072-48.384-35.6864-3.2256-71.3216 8.3968-97.8432 31.8464l-233.9328 206.7456c-5.632 5.0176-15.0016 5.12-20.8384 0.256l-86.3232-71.68c-48.384-40.192-120.7296-39.4752-168.2432 1.6896L43.3152 712.8064v41.1136c0 31.8976 10.752 61.2352 28.8256 84.6848 0.2048-0.1536 0.4096-0.3072 0.5632-0.4608l168.0384-145.5104c5.6832-4.9152 15.0016-4.9664 20.736-0.1536l86.3232 71.68c48.896 40.6016 121.6 39.5264 169.216-2.56l233.9328-206.7456c4.352-3.84 9.472-3.9936 12.1344-3.7376 2.56 0.256 7.3216 1.2288 10.5984 5.376l191.9488 243.5584c3.8912 4.9664 8.4992 9.0624 13.4656 12.3392 8.2432-17.7664 12.9024-37.5808 12.9024-58.4704v-104.5504L863.232 485.9392z" fill="#FFE37B" p-id="3545"></path><path d="M254.9248 358.144m-76.8 0a76.8 76.8 0 1 0 153.6 0 76.8 76.8 0 1 0-153.6 0Z" fill="#FFE37B" p-id="3546"></path></svg>