<svg xmlns="http://www.w3.org/2000/svg" xmlns:xlink="http://www.w3.org/1999/xlink" style="margin:auto;background:rgb(255 255 255 / 10%); display:block;" width="200px" height="200px" viewBox="0 0 100 100" preserveAspectRatio="xMidYMid">
<polygon fill="#e15b64" points="31.6,19 13.9,19 5,34.3 13.9,49.7 31.6,49.7 40.4,34.3">
  <animate attributeName="opacity" repeatCount="indefinite" dur="1s" keyTimes="0;0.5;1" values="1;0.5;1" begin="0s"></animate>
</polygon>
<polygon fill="#f47e60" points="58.9,3.1 41.1,3.1 32.3,18.4 41.1,33.7 58.9,33.7 67.7,18.4">
  <animate attributeName="opacity" repeatCount="indefinite" dur="1s" keyTimes="0;0.5;1" values="1;0.5;1" begin="-0.14285714285714285s"></animate>
</polygon>
<polygon fill="#f8b26a" points="58.9,34.6 41.1,34.6 32.3,50 41.1,65.3 58.9,65.3 67.7,50">
  <animate attributeName="opacity" repeatCount="indefinite" dur="1s" keyTimes="0;0.5;1" values="1;0.5;1" begin="-0.2857142857142857s"></animate>
</polygon>
<polygon fill="#abbd81" points="58.9,66.3 41.1,66.3 32.3,81.6 41.1,96.9 58.9,96.9 67.7,81.6">
  <animate attributeName="opacity" repeatCount="indefinite" dur="1s" keyTimes="0;0.5;1" values="1;0.5;1" begin="-0.42857142857142855s"></animate>
</polygon>
<polygon fill="#849b87" points="86.1,50.6 68.4,50.6 59.6,65.9 68.4,81.2 86.1,81.2 95,65.9">
  <animate attributeName="opacity" repeatCount="indefinite" dur="1s" keyTimes="0;0.5;1" values="1;0.5;1" begin="-0.5714285714285714s"></animate>
</polygon>
<polygon fill="#5bade1" points="86.1,19 68.4,19 59.6,34.3 68.4,49.7 86.1,49.7 95,34.3">
  <animate attributeName="opacity" repeatCount="indefinite" dur="1s" keyTimes="0;0.5;1" values="1;0.5;1" begin="-0.7142857142857143s"></animate>
</polygon>
<polygon fill="#a376e7" points="31.6,50.6 13.9,50.6 5,65.9 13.9,81.2 31.6,81.2 40.4,65.9">
  <animate attributeName="opacity" repeatCount="indefinite" dur="1s" keyTimes="0;0.5;1" values="1;0.5;1" begin="-0.8571428571428571s"></animate>
</polygon>
</svg>