<svg xmlns="http://www.w3.org/2000/svg" xmlns:xlink="http://www.w3.org/1999/xlink" t="1632313300320" class="icon" viewBox="0 0 1039 1024" version="1.1" p-id="8047" width="16.234375" height="16"><defs><style type="text/css">@font-face { font-family: element-icons; src: url("chrome-extension://moombeodfomdpjnpocobemoiaemednkg/fonts/element-icons.woff") format("woff"), url("chrome-extension://moombeodfomdpjnpocobemoiaemednkg/fonts/element-icons.ttf ") format("truetype"); }
</style></defs><path d="M9.744281 957.92557a515.103356 66.060287 0 1 0 1030.206711 0 515.103356 66.060287 0 1 0-1030.206711 0Z" fill="#ECF3FF" p-id="8048"/><path d="M0 461.36322a456.100248 453.201006 0 1 0 912.200495 0 456.100248 453.201006 0 1 0-912.200495 0Z" fill="#0C538E" p-id="8049"/><path d="M673.44439 867.327797l86.142841 104.089855 12.120245 14.651779c6.548044 7.905738 20.153267 12.431383 29.996547 12.431383 10.408985 0 22.840369-4.624644 29.996546-12.431383 7.424888-8.089592 12.926376-18.696574 12.431384-29.996547-0.523278-11.837392-4.893355-20.902827-12.431384-29.996546l-86.14284-104.089855-12.120246-14.651779c-6.548044-7.905738-20.153267-12.431383-29.996546-12.431383-10.408985 0-22.840369 4.624644-29.996547 12.431383-7.424888 8.089592-12.926376 18.696574-12.431383 29.996547 0.523278 11.837392 4.893355 20.902827 12.431383 29.996546z" fill="#0C538E" p-id="8050"/><path d="M677.715469 851.275897l86.14284 104.089855 12.120246 14.651778c6.548044 7.905738 20.153267 12.431383 29.996546 12.431384 10.408985 0 22.840369-4.624644 29.996547-12.431384 7.424888-8.089592 12.926376-18.696574 12.431383-29.996546-0.523278-11.837392-4.893355-20.902827-12.431383-29.996547l-86.142841-104.089855-12.120245-14.651778c-6.548044-7.905738-20.153267-12.431383-29.996547-12.431384-10.408985 0-22.840369 4.624644-29.996546 12.431384-7.424888 8.089592-12.926376 18.696574-12.431384 29.996546 0.523278 11.837392 4.893355 20.902827 12.431384 29.996547z" fill="#ECF3FF" p-id="8051"/><path d="M458.391356 446.54173m-404.083606 0a404.083605 404.083605 0 1 0 808.167211 0 404.083605 404.083605 0 1 0-808.167211 0Z" fill="#3390FF" p-id="8052"/><path d="M820.047031 446.54173a422.667039 422.667039 0 0 1-3.705372 54.986597l1.513262-11.314114a408.609251 408.609251 0 0 1-28.285286 102.732161l4.242793-10.140276A409.217385 409.217385 0 0 1 766.531269 636.010723q-7.778454 12.728379-16.462037 24.763768-2.163824 3.012383-4.384219 5.982338l-2.234538 2.955813c-3.776086 5.034781 3.266951-4.327649 3.238665-4.242793-0.395994 1.739545-3.464948 4.370077-4.624644 5.798484q-2.630532 3.238665-5.331777 6.42076a406.332286 406.332286 0 0 1-41.494515 42.258218q-5.218635 4.596359-10.59284 9.008864c-1.909257 1.569833-3.846799 3.097239-5.770199 4.652929-2.234538 1.796116-6.236906 4.582216 4.242793-3.21038-1.244553 0.919272-2.46082 1.880972-3.691229 2.828529q-11.87982 8.924008-24.410203 16.971172A408.609251 408.609251 0 0 1 594.698152 782.090086l10.140276-4.242793a408.609251 408.609251 0 0 1-102.732162 28.285286l11.314115-1.513262a415.157295 415.157295 0 0 1-109.987337 0l11.314114 1.513262a408.609251 408.609251 0 0 1-102.732161-28.285286l10.140276 4.242793a409.217385 409.217385 0 0 1-53.148054-27.380158q-12.728379-7.778454-24.763769-16.462037-3.012383-2.163824-5.982338-4.384219l-2.955812-2.234538c-5.034781-3.776086 4.327649 3.266951 4.242793 3.238666-1.739545-0.395994-4.370077-3.464948-5.798484-4.624645q-3.238665-2.630532-6.42076-5.331776a406.332286 406.332286 0 0 1-42.258218-41.494516q-4.596359-5.218635-9.008864-10.59284c-1.569833-1.909257-3.097239-3.846799-4.65293-5.770198-1.796116-2.234538-4.582216-6.236906 3.21038 4.242793-0.919272-1.244553-1.880972-2.46082-2.828528-3.69123q-8.924008-11.87982-16.971172-24.410202a408.609251 408.609251 0 0 1-31.835091-60.247661l4.242793 10.140275a408.609251 408.609251 0 0 1-28.285286-102.732161l1.513263 11.314115a415.157295 415.157295 0 0 1 0-109.987338l-1.513263 11.314115a408.609251 408.609251 0 0 1 28.285286-102.732161l-4.242793 10.140275a409.217385 409.217385 0 0 1 27.380158-53.148053q7.778454-12.728379 16.462037-24.763769 2.163824-3.012383 4.384219-5.982338l2.234538-2.955813c3.776086-5.034781-3.266951 4.327649-3.238665 4.242793 0.395994-1.739545 3.464948-4.370077 4.624644-5.798483q2.630532-3.238665 5.331776-6.42076a406.332286 406.332286 0 0 1 41.494516-42.258219q5.218635-4.596359 10.59284-9.008863c1.909257-1.569833 3.846799-3.097239 5.770198-4.65293 2.234538-1.796116 6.236906-4.582216-4.242793 3.21038 1.244553-0.919272 2.46082-1.880972 3.69123-2.828529q11.87982-8.924008 24.410203-16.971172a408.609251 408.609251 0 0 1 60.24766-31.83509l-10.140275 4.242793a408.609251 408.609251 0 0 1 102.732161-28.285287l-11.314114 1.513263a415.157295 415.157295 0 0 1 109.987337 0l-11.314115-1.513263a408.609251 408.609251 0 0 1 102.732161 28.285287l-10.140275-4.242793a409.217385 409.217385 0 0 1 53.148054 27.380158q12.728379 7.778454 24.763768 16.462036 3.012383 2.163824 5.982338 4.38422l2.955813 2.234538c5.034781 3.776086-4.327649-3.266951-4.242793-3.238666 1.739545 0.395994 4.370077 3.464948 5.798483 4.624645q3.238665 2.630532 6.420761 5.331776a406.332286 406.332286 0 0 1 42.258218 41.494516q4.596359 5.218635 9.008864 10.59284c1.569833 1.909257 3.097239 3.846799 4.652929 5.770198 1.796116 2.234538 4.582216 6.236906-3.21038-4.242793 0.919272 1.244553 1.880972 2.46082 2.828529 3.69123q8.924008 11.87982 16.971172 24.410202a408.609251 408.609251 0 0 1 31.83509 60.247661l-4.242793-10.140275a408.609251 408.609251 0 0 1 28.285287 102.732161l-1.513263-11.314115a422.667039 422.667039 0 0 1 3.705372 54.986597c0 22.189807 19.47442 43.460343 42.42793 42.42793s42.42793-18.640004 42.42793-42.42793c-0.21214-90.512917-27.832722-181.605683-80.499925-255.543422A456.53867 456.53867 0 0 0 608.996365 26.208227C522.697955-5.485436 424.958147-8.214967 336.594911 16.831655 251.244059 41.015575 172.313966 91.617953 115.969675 160.308771c-59.809239 72.862898-95.50527 160.476574-102.817017 254.567581-7.071322 90.866483 15.670049 184.490782 62.920621 262.374319 45.553454 75.253005 114.201845 137.961486 194.574487 174.308079a467.994211 467.994211 0 0 0 140.478876 38.764985c46.076732 5.374204 92.903024 2.446677 138.329194-6.661185 87.401536-17.522735 169.626864-63.641895 231.13322-128.019207s104.570705-147.833051 118.105215-236.182144a488.996036 488.996036 0 0 0 6.194478-72.990182c0-22.189807-19.559276-43.4462-42.42793-42.42793s-42.357217 18.710717-42.413788 42.498643z" fill="#ECF3FF" p-id="8053"/><path d="M610.156061 370.327025c0.381851 0.48085 5.048924 6.378332 1.414265 1.725402s0.579848 0.834416 1.301123 1.824401q3.337664 4.553931 6.491473 9.235147 6.321762 9.390715 11.851535 19.26228 5.275206 9.419 9.814995 19.219852c0.791988 1.725402 1.555691 3.464948 2.347679 5.204493 2.67296 5.897482-2.036541-5.218635-0.466708-1.074841 1.414264 3.578089 2.828529 7.071322 4.073082 10.720124a277.195809 277.195809 0 0 1 11.625253 43.65834q0.523278 2.828529 0.975842 5.798483c0.367709 2.276966 0.664704 8.330017-0.084856-1.23041 0.311138 3.945797 0.919272 7.86331 1.258695 11.809108 0.678847 7.990593 0.989985 16.009472 1.018271 24.042493 0.084856 18.498577 16.207469 36.21931 35.356608 35.356609s35.441464-15.556908 35.356608-35.356609c-0.155569-35.512177-5.897482-71.604203-18.116726-105.009127a332.352118 332.352118 0 0 0-54.222894-95.165847c-5.317634-6.618757-16.971172-10.352415-25.004194-10.352414-8.66944 0-19.035998 3.846799-25.004193 10.352414-6.180335 6.731898-10.776694 15.556908-10.352415 25.004194 0.438422 9.89985 4.17208 17.296453 10.352415 25.004193zM538.566001 304.43645c18.498577 0 36.205167-16.26404 35.356608-35.356609s-15.556908-35.356608-35.356608-35.356608c-18.498577 0-36.205167 16.26404-35.356608 35.356608s15.556908 35.356608 35.356608 35.356609z" fill="#FFFFFF" p-id="8054"/><script xmlns=""/></svg>