<?xml version="1.0" standalone="no"?><!DOCTYPE svg PUBLIC "-//W3C//DTD SVG 1.1//EN" "http://www.w3.org/Graphics/SVG/1.1/DTD/svg11.dtd"><svg t="1680312117489" class="icon" viewBox="0 0 1024 1024" version="1.1" xmlns="http://www.w3.org/2000/svg" p-id="4910" xmlns:xlink="http://www.w3.org/1999/xlink" width="128" height="128"><path d="M516.7104 130.56c101.5296 0 203.008-0.1536 304.5376 0.0512 73.7792 0.1536 108.9024 35.0208 108.9536 107.9296 0.0512 182.6304 0.0512 365.2608 0 547.8912-0.0512 72.8064-35.3792 108.288-109.0048 108.3904-203.008 0.256-406.0672 0.256-609.0752 0-75.9808-0.1024-110.1824-34.2528-110.2848-109.824-0.2048-181.7088-0.2048-363.4176 0-545.1264 0.1024-75.008 34.7136-109.1584 110.336-109.2608 101.4784-0.2048 203.008-0.0512 304.5376-0.0512z m-161.536 411.392c-53.8624 71.4752-105.6768 140.1344-160.256 212.5312h642.4064c-70.144-95.3344-137.3696-186.7264-206.2848-280.3712-54.9888 70.3488-107.3152 137.4208-160.8192 205.8752-39.424-47.3088-75.9808-91.1872-115.0464-138.0352z m-50.2784-136.5504c47.872 0.256 84.3264-35.7888 84.0704-83.1488-0.256-45.2608-37.2224-82.944-82.0736-83.6096-45.8752-0.6656-85.3504 37.4784-85.8624 82.8928-0.4608 47.0528 36.096 83.6096 83.8656 83.8656z" fill="#FC7032" p-id="4911"></path><path d="M516.7104 130.56c-101.5296 0-203.008-0.1024-304.5376 0.0512-75.6224 0.1024-110.2336 34.2528-110.336 109.2608-0.2048 181.7088-0.2048 363.4176 0 545.1264 0.1024 75.5712 34.304 109.7216 110.2848 109.824 124.3136 0.1536 248.6272 0.0512 372.8896 0 54.9376-39.1168 103.6288-86.528 144.2304-140.3392H194.9184c54.5792-72.3968 106.3424-141.056 160.256-212.5312C394.24 588.8 430.7968 632.6784 470.2208 679.9872c53.4528-68.4544 105.8304-135.4752 160.8192-205.8752 49.92 67.8912 99.0208 134.5536 148.8896 202.3936 52.2752-94.4128 82.0736-203.008 82.0736-318.5664 0-79.872-14.2336-156.4672-40.2944-227.328h-0.512c-101.4784-0.2048-203.008-0.0512-304.4864-0.0512zM304.896 405.4016c-47.7696-0.256-84.3264-36.8128-83.8144-83.8656 0.4608-45.4144 39.9872-83.5584 85.8624-82.8928 44.8512 0.6656 81.8176 38.2976 82.0736 83.6096 0.2048 47.36-36.2496 83.4048-84.1216 83.1488z" fill="#FF7E3E" p-id="4912"></path><path d="M214.2208 754.4832h-19.2512c54.5792-72.3968 106.3424-141.056 160.256-212.5312 27.2384 32.7168 53.2992 63.9488 79.9744 95.9488 148.7872-119.4496 244.5824-302.1824 246.5792-507.392-55.04 0-110.0288 0.0512-165.0688 0.0512-101.5296 0-203.008-0.1024-304.5376 0.0512-75.6224 0.1024-110.2336 34.2528-110.336 109.2608-0.2048 179.3536-0.2048 358.7584 0 538.112 38.6048-4.5568 76.1344-12.4928 112.384-23.5008z m92.672-515.84c44.8512 0.6656 81.8176 38.2976 82.0736 83.6096 0.256 47.36-36.1984 83.4048-84.0704 83.1488-47.7696-0.256-84.3264-36.8128-83.8144-83.8656 0.4096-45.4144 39.936-83.5584 85.8112-82.8928z" fill="#FF9552" p-id="4913"></path><path d="M275.2512 400.128c-32.4096-11.7248-54.5792-41.9328-54.2208-78.592 0.4608-45.4144 39.9872-83.5584 85.8624-82.8928 33.3312 0.4608 62.2592 21.4016 75.0592 50.688 36.6592-48.1792 66.8672-101.5296 89.2416-158.8224-86.3232 0-172.6464-0.1024-259.0208 0.0512-75.6224 0.1024-110.2336 34.2528-110.336 109.2608-0.1024 87.6032 0 175.2576 0 262.8608a657.2544 657.2544 0 0 0 173.4144-102.5536z" fill="#FFA56A" p-id="4914"></path></svg>